<svg id="blender" xmlns="http://www.w3.org/2000/svg" width="86.815" height="71.525" viewBox="0 0 86.815 71.525">
  <path id="Trazado_239" data-name="Trazado 239" d="M61.367,89.1H25.533c-6.449.493-5.427,9.09-.67,9.021,4.4-.07,11.8,0,17.053,0-7.541,7.117-24.383,17.9-31.747,24.911-2.855,2.713-2.677,10.606,5.6,8.773,3.136-1.727,17.3-13.285,19.239-15.257C36,141.1,63.621,152.626,84.375,138.214c11.028-7.682,14.835-27.131,6.2-36.715-6.8-7.612-19.2-15.222-34.039-27.59-2.359-1.937-9.441-.952-7.047,4.827A121.7,121.7,0,0,0,61.367,89.1ZM65,97.731c10.219,0,18.6,7.54,18.6,16.7,0,9.23-8.386,16.7-18.6,16.7-10.289,0-18.6-7.471-18.6-16.7C46.392,105.27,54.708,97.731,65,97.731Z" transform="translate(-8.501 -73.005)" fill="#db933d" fill-rule="evenodd"/>
  <path id="Trazado_240" data-name="Trazado 240" d="M49.85,92.689c6.355,0,11.539,4.882,11.539,10.869s-5.184,10.869-11.539,10.869-11.539-4.882-11.539-10.869S43.495,92.689,49.85,92.689Z" transform="translate(7.297 -62.574)" fill="#37699f" fill-rule="evenodd"/>
</svg>
