<svg id="Grupo_166" data-name="Grupo 166" xmlns="http://www.w3.org/2000/svg" width="66.821" height="72.178" viewBox="0 0 66.821 72.178">
  <path id="Trazado_227" data-name="Trazado 227" d="M60.507,492.915c.233.005.467.016.7.021,1.067.027.679-.806.685-1.289.032-4.3.011-8.612.011-12.921-.005-1.847.032-1.884,1.825-1.884q5.118,0,10.236.01c1.836.005,1.841.005,1.841,1.82q0,26.553.011,53.095c0,3.752-.186,7.509.525,11.228a1.573,1.573,0,0,1-1.1,1.905c-.939.388-1.82.907-2.727,1.374a.835.835,0,0,0-.743.271,8.685,8.685,0,0,0-1,.207,46.537,46.537,0,0,1-17.41,2.032c-5.227-.324-10.167-1.428-14.024-5.46a31.419,31.419,0,0,1-8.6-16.89c-.324-1.937-.287-3.9-.536-5.837,0-.159.005-.318.005-.472.483-2.022.621-4.091,1.109-6.129a28.345,28.345,0,0,1,7.805-13.956,24.406,24.406,0,0,1,15.017-7.169c2.144-.212,4.245.09,6.367.043m1.242,27.933h-.016v-13.94c0-2.494,0-2.494-2.383-3.035-4.813-1.093-10.225,1.433-12.146,5.89a27.009,27.009,0,0,0,0,21.841,9.489,9.489,0,0,0,5.662,5.577,15.311,15.311,0,0,0,7.179.547c1.39-.175,1.74-.743,1.725-2.043-.058-4.945-.021-9.891-.021-14.836" transform="translate(-9.562 -476.714)" fill="#f3438d" fill-rule="evenodd"/>
  <path id="Trazado_228" data-name="Trazado 228" d="M26.313,512.545v-33.4c0-.212,0-.43.005-.642.032-1.687.032-1.687,1.693-1.687H38.634c2.016.005,2.016.005,2.016,2.085v65.644c0,.854.048,1.709.037,2.558-.005.8-.324,1.231-1.236,1.226-3.969-.037-7.933-.032-11.9-.005-.9.01-1.22-.4-1.22-1.231.011-1.916-.011-3.837-.011-5.757V512.545Z" transform="translate(-26.313 -476.818)" fill="#f3438d" fill-rule="evenodd"/>
</svg>
