<svg id="Grupo_165" data-name="Grupo 165" xmlns="http://www.w3.org/2000/svg" width="88.511" height="70.779" viewBox="0 0 88.511 70.779">
  <path id="Trazado_223" data-name="Trazado 223" d="M49.879,477.259a36.7,36.7,0,0,1-14.444-2.634c-1.851-.741-1.856-.815-1.4-2.661q.97-3.912,1.956-7.824c.468-1.867.463-1.83,2.177-1.041a27.817,27.817,0,0,0,13.109,2.939,8.11,8.11,0,0,0,2.871-.631,3.6,3.6,0,0,0,.72-6.331,14.544,14.544,0,0,0-3.486-1.719,51.645,51.645,0,0,1-9.875-4.517c-9.954-6.489-7.866-19.224.631-24.54a22.99,22.99,0,0,1,11.447-3.444,36.067,36.067,0,0,1,14.65,2.2c1.12.431,1.535.936,1.173,2.187-.794,2.7-1.472,5.448-2.13,8.193-.258,1.078-.715,1.262-1.693.789a24.623,24.623,0,0,0-9.049-2.361,8.089,8.089,0,0,0-4.312.789,3.306,3.306,0,0,0-.442,5.826,24,24,0,0,0,5.595,2.582,43.931,43.931,0,0,1,8.114,3.86c8.771,5.695,8.566,19.624-1.109,25.093a27.47,27.47,0,0,1-14.5,3.25" transform="translate(16.649 -406.491)" fill="#0dbdf3" fill-rule="evenodd"/>
  <path id="Trazado_222" data-name="Trazado 222" d="M24.219,456.914q-.008-16.067,0-32.139c0-2.087.016-2.029,2.019-2.319a128.521,128.521,0,0,1,22.653-1.031c6.058.2,11.968,1.246,17.026,4.953a19.227,19.227,0,0,1,8.019,15c.368,5.816-.752,11.248-4.385,15.943A22.806,22.806,0,0,1,57.3,465.149a42.168,42.168,0,0,1-16.085,1.425c-1.188-.121-1.2.594-1.2,1.42q.008,6.46.005,12.909c0,2.913-.042,5.831.016,8.745.021,1.157-.41,1.6-1.562,1.593-4.17-.037-8.34-.047-12.5.011-1.336.016-1.783-.431-1.772-1.793.042-10.848.026-21.7.026-32.544m15.8-13c0,2.824.047,5.642-.021,8.461-.032,1.278.337,1.82,1.709,1.919a33.9,33.9,0,0,0,5.753-.042c6.031-.584,11.221-4.391,10.706-11.737a8.6,8.6,0,0,0-5.516-7.877c-3.723-1.6-7.6-1.346-11.495-.8-.894.121-1.157.626-1.146,1.483.032,2.866.011,5.731.011,8.6" transform="translate(-24.193 -421.33)" fill="#0dbdf3" fill-rule="evenodd"/>
</svg>
