<svg xmlns="http://www.w3.org/2000/svg" width="97.452" height="71.921" viewBox="0 0 97.452 71.921">
  <path id="Trazado_98" data-name="Trazado 98" d="M130.386,83.741a9.06,9.06,0,0,0-3.827-.66c-8.314,0-13.856,6.4-13.856,17.024,0,12.141,5.674,17.024,13.065,17.024a12.448,12.448,0,0,0,4.553-.726V83.741Zm-29.56,16.892c0-15.374,9.9-27.383,26.129-27.383a29.263,29.263,0,0,1,3.431.132V56.226a.661.661,0,0,1,.66-.66h10.623c.528,0,.66.2.66.528V116.4a47,47,0,0,0,.33,6.466c0,.462,0,.528-.4.726a39.3,39.3,0,0,1-16.892,3.827c-14.318,0-24.546-8.842-24.546-26.789Zm-22.5-10.689L96.8,125.772c.33.528.132,1.056-.4,1.056H84.924a1.3,1.3,0,0,1-1.386-.858Q77.2,112.905,70.606,98.851h-.132c-3.959,8.842-8.314,18.475-12.537,27.185a1.267,1.267,0,0,1-1.188.726H45.8c-.66,0-.726-.528-.4-.924L63.479,91.065,45.994,56.49a.584.584,0,0,1,.462-.99H57.8c.66,0,.99.132,1.188.726C63.149,65,67.372,73.645,71.331,82.487h.132C75.29,73.777,79.513,65,83.538,56.358c.33-.528.528-.858,1.188-.858H95.349c.528,0,.726.4.4.99Z" transform="translate(-45.206 -55.5)" fill="#ff26be"/>
</svg>
