<svg id="Grupo_167" data-name="Grupo 167" xmlns="http://www.w3.org/2000/svg" width="86.669" height="73.326" viewBox="0 0 86.669 73.326">
  <path id="Trazado_224" data-name="Trazado 224" d="M56.212,449.451c2.969,0,5.944.047,8.913-.026a1.888,1.888,0,0,1,2.147,1.609q7.286,23.678,14.657,47.325,3.093,9.969,6.171,19.942c.469,1.509.411,1.582-1.15,1.588-4.736.005-9.473-.037-14.209.026a1.8,1.8,0,0,1-2.057-1.529c-1.44-4.947-2.98-9.857-4.415-14.8a1.785,1.785,0,0,0-2.02-1.572q-8.354.087-16.714,0a1.771,1.771,0,0,0-2.015,1.582c-1.3,4.837-2.711,9.647-3.993,14.489a2.042,2.042,0,0,1-2.368,1.846c-4.362-.1-8.729-.032-13.091-.037-1.909,0-1.915-.021-1.35-1.862q9.082-29.675,18.175-59.346c.8-2.616,1.624-5.227,2.379-7.859a1.658,1.658,0,0,1,1.883-1.392c3.017.058,6.034.021,9.056.021m-.554,12.637c-.216.564-.343.807-.406,1.065q-3.236,12.453-6.456,24.915c-.364,1.414-.232,1.582,1.324,1.587,3.855.016,7.706.01,11.561.005,1.556-.005,1.635-.116,1.224-1.587q-2.35-8.378-4.7-16.751c-.828-2.969-1.64-5.949-2.547-9.235" transform="translate(-24.393 -446.6)" fill="#f37704" fill-rule="evenodd"/>
  <path id="Trazado_225" data-name="Trazado 225" d="M37.679,478.676q0-11.772,0-23.544c0-1.988.042-2.036,2.025-2.036,4.177-.005,8.36.037,12.537-.021,1.334-.021,1.777.469,1.772,1.783q-.04,23.821.005,47.642c.005,1.408-.459,1.841-1.851,1.82q-6.337-.119-12.679,0c-1.4.026-1.851-.417-1.841-1.82.053-7.943.032-15.886.032-23.824" transform="translate(32.257 -430.999)" fill="#f37704" fill-rule="evenodd"/>
  <path id="Trazado_226" data-name="Trazado 226" d="M46.065,465.051c-3.956.005-7.009-2.031-8.064-5.375a8.224,8.224,0,0,1,2.8-9.214,9.737,9.737,0,0,1,10.617,0,8.308,8.308,0,0,1,2.869,9.2c-1.071,3.333-4.2,5.385-8.223,5.39" transform="translate(31.978 -448.889)" fill="#f37704" fill-rule="evenodd"/>
</svg>
