<svg id="google-web-designer" xmlns="http://www.w3.org/2000/svg" width="61.569" height="71.131" viewBox="0 0 61.569 71.131">
  <path id="Trazado_230" data-name="Trazado 230" d="M23.652,368.1H-.013s-1.246,15.507,12.36,28.337a39.291,39.291,0,0,0,27.274,10.686V384.1A16.193,16.193,0,0,1,23.652,368.1Z" transform="translate(0.043 -336.013)" fill="#f4b500"/>
  <path id="Trazado_231" data-name="Trazado 231" d="M94.75,18.387V0A32.182,32.182,0,0,0,71.529,9.941,32.771,32.771,0,0,0,62.9,28.568s14.678,2.746,18.2,3.5A13.4,13.4,0,0,1,94.75,18.387Z" transform="translate(-57.414 0.015)" fill="#4481f6"/>
  <path id="Trazado_232" data-name="Trazado 232" d="M61.03,327.9a14.934,14.934,0,0,0-.131,3.5H79.23Z" transform="translate(-55.535 -299.318)" fill="#3566c5"/>
  <path id="Trazado_233" data-name="Trazado 233" d="M428.3,75.975l3.53-12.709a19.944,19.944,0,0,0-3.53-.157Z" transform="translate(-390.964 -57.573)" fill="#af362b"/>
  <path id="Trazado_234" data-name="Trazado 234" d="M428.3,78.009s11.323-.235,11.846,11.942h12.377s1.116-19.882-20.693-24.65C430.958,68.464,428.3,78.009,428.3,78.009Z" transform="translate(-390.964 -59.607)" fill="#db4533"/>
  <path id="Trazado_235" data-name="Trazado 235" d="M455.1,365.755l4.262-9.475A9.91,9.91,0,0,0,464.618,348c1.63.715,5.552,2.336,7.348,3.129C471.574,354.163,467.521,365.407,455.1,365.755Z" transform="translate(-415.428 -317.665)" fill="#ccc"/>
  <path id="Trazado_236" data-name="Trazado 236" d="M459.362,356.281a7.107,7.107,0,0,1-4.262,1.011v8.464ZM464.61,348h7.784a7.6,7.6,0,0,1-.436,3.129C470.328,350.423,464.61,348,464.61,348Z" transform="translate(-415.428 -317.665)" fill="#b7b7b7"/>
</svg>
