<?xml version="1.0" encoding="utf-8"?>
<!-- Generator: Adobe Illustrator 24.0.0, SVG Export Plug-In . SVG Version: 6.00 Build 0)  -->
<svg version="1.1"
	 id="svg2" inkscape:export-xdpi="76.235291" inkscape:export-ydpi="76.235291" inkscape:output_extension="org.inkscape.output.svg.inkscape" sodipodi:version="0.32" xmlns:cc="http://creativecommons.org/ns#" xmlns:dc="http://purl.org/dc/elements/1.1/" xmlns:inkscape="http://www.inkscape.org/namespaces/inkscape" xmlns:rdf="http://www.w3.org/1999/02/22-rdf-syntax-ns#" xmlns:sodipodi="http://sodipodi.sourceforge.net/DTD/sodipodi-0.dtd" xmlns:svg="http://www.w3.org/2000/svg"
	 xmlns="http://www.w3.org/2000/svg" xmlns:xlink="http://www.w3.org/1999/xlink" x="0px" y="0px" width="642.7px" height="788px"
	 viewBox="0 0 642.7 788" style="enable-background:new 0 0 642.7 788;" xml:space="preserve">
<style type="text/css">
	.st0{fill:url(#path3068-5_1_);stroke:url(#path3068-5_2_);stroke-width:21.1429;stroke-miterlimit:10;}
	.st1{opacity:0.5443;fill:none;stroke:url(#path4174-0_1_);stroke-width:21.1429;stroke-miterlimit:10;enable-background:new    ;}
	.st2{fill:#3465A4;stroke:url(#path3364-7_1_);stroke-width:1.0049;stroke-miterlimit:10;}
	.st3{opacity:0.4937;fill:url(#path6922-9_1_);enable-background:new    ;}
	.st4{fill:#204A87;}
	.st5{fill:#00546B;}
	.st6{fill:#F57900;}
</style>
<defs>
	
		<inkscape:perspective  id="perspective8097" inkscape:persp3d-origin="372.04724 : 350.78739 : 1" inkscape:vp_x="0 : 526.18109 : 1" inkscape:vp_y="0 : 1000 : 0" inkscape:vp_z="744.09448 : 526.18109 : 1" sodipodi:type="inkscape:persp3d">
		</inkscape:perspective>
	
		<inkscape:perspective  id="perspective2803" inkscape:persp3d-origin="405 : 141.66667 : 1" inkscape:vp_x="0 : 212.5 : 1" inkscape:vp_y="0 : 1000 : 0" inkscape:vp_z="810 : 212.5 : 1" sodipodi:type="inkscape:persp3d">
		</inkscape:perspective>
	
		<inkscape:perspective  id="perspective22642" inkscape:persp3d-origin="372.04724 : 350.78739 : 1" inkscape:vp_x="0 : 526.18109 : 1" inkscape:vp_y="0 : 1000 : 0" inkscape:vp_z="744.09448 : 526.18109 : 1" sodipodi:type="inkscape:persp3d">
		</inkscape:perspective>
	
		<inkscape:perspective  id="perspective23652" inkscape:persp3d-origin="372.04724 : 350.78739 : 1" inkscape:vp_x="0 : 526.18109 : 1" inkscape:vp_y="0 : 1000 : 0" inkscape:vp_z="744.09448 : 526.18109 : 1" sodipodi:type="inkscape:persp3d">
		</inkscape:perspective>
	
		<inkscape:perspective  id="perspective24394" inkscape:persp3d-origin="372.04724 : 350.78739 : 1" inkscape:vp_x="0 : 526.18109 : 1" inkscape:vp_y="0 : 1000 : 0" inkscape:vp_z="744.09448 : 526.18109 : 1" sodipodi:type="inkscape:persp3d">
		</inkscape:perspective>
	
		<inkscape:perspective  id="perspective19432" inkscape:persp3d-origin="372.04724 : 350.78739 : 1" inkscape:vp_x="0 : 526.18109 : 1" inkscape:vp_y="0 : 1000 : 0" inkscape:vp_z="744.09448 : 526.18109 : 1" sodipodi:type="inkscape:persp3d">
		</inkscape:perspective>
	
		<inkscape:perspective  id="perspective7789" inkscape:persp3d-origin="372.04724 : 350.78739 : 1" inkscape:vp_x="0 : 526.18109 : 1" inkscape:vp_y="0 : 1000 : 0" inkscape:vp_z="744.09448 : 526.18109 : 1" sodipodi:type="inkscape:persp3d">
		</inkscape:perspective>
	
		<inkscape:perspective  id="perspective6151" inkscape:persp3d-origin="372.04724 : 350.78739 : 1" inkscape:vp_x="0 : 526.18109 : 1" inkscape:vp_y="0 : 1000 : 0" inkscape:vp_z="744.09448 : 526.18109 : 1" sodipodi:type="inkscape:persp3d">
		</inkscape:perspective>
	
		<inkscape:perspective  id="perspective4334" inkscape:persp3d-origin="372.04724 : 350.78739 : 1" inkscape:vp_x="0 : 526.18109 : 1" inkscape:vp_y="0 : 1000 : 0" inkscape:vp_z="744.09448 : 526.18109 : 1" sodipodi:type="inkscape:persp3d">
		</inkscape:perspective>
	
		<inkscape:perspective  id="perspective213" inkscape:persp3d-origin="372.04724 : 350.78739 : 1" inkscape:vp_x="0 : 526.18109 : 1" inkscape:vp_y="0 : 1000 : 0" inkscape:vp_z="744.09448 : 526.18109 : 1" sodipodi:type="inkscape:persp3d">
		</inkscape:perspective>
</defs>
<sodipodi:namedview  bordercolor="#666666" borderopacity="1.0" id="base" inkscape:current-layer="layer1" inkscape:cx="-1108.1794" inkscape:cy="470.18178" inkscape:document-units="px" inkscape:guide-bbox="true" inkscape:pageopacity="0.0" inkscape:pageshadow="2" inkscape:window-height="771" inkscape:window-maximized="0" inkscape:window-width="1276" inkscape:window-x="0" inkscape:window-y="0" inkscape:zoom="0.18746663" pagecolor="#ffffff" showgrid="false" showguides="true">
	<sodipodi:guide  id="guide2280" orientation="horizontal" position="545.21834"></sodipodi:guide>
	<sodipodi:guide  id="guide2282" orientation="vertical" position="308.46382"></sodipodi:guide>
	<sodipodi:guide  id="guide2284" orientation="vertical" position="712.54005"></sodipodi:guide>
	<sodipodi:guide  id="guide2286" orientation="horizontal" position="133.17442"></sodipodi:guide>
	<sodipodi:guide  id="guide2491" orientation="horizontal" position="900.35012"></sodipodi:guide>
	<sodipodi:guide  id="guide2495" orientation="vertical" position="414.32041"></sodipodi:guide>
	<sodipodi:guide  id="guide2497" orientation="horizontal" position="154.80103"></sodipodi:guide>
	<sodipodi:guide  id="guide3687" orientation="horizontal" position="936.7739"></sodipodi:guide>
	<sodipodi:guide  id="guide3689" orientation="vertical" position="-66.018088"></sodipodi:guide>
	<sodipodi:guide  id="guide3691" orientation="horizontal" position="87.644702"></sodipodi:guide>
	<sodipodi:guide  id="guide3693" orientation="vertical" position="785.38759"></sodipodi:guide>
</sodipodi:namedview>
<g id="layer1" inkscape:groupmode="layer" inkscape:label="Ebene 1">
	<g id="g24902">
		
			<linearGradient id="path3068-5_1_" gradientUnits="userSpaceOnUse" x1="-658.1002" y1="807.7002" x2="-628.5768" y2="807.7002" gradientTransform="matrix(21.1429 0 0 -21.1429 13923.7363 17473.0508)">
			<stop  offset="0" style="stop-color:#729FCF"/>
			<stop  offset="0.3158" style="stop-color:#BABDB6"/>
			<stop  offset="1" style="stop-color:#3465A4"/>
		</linearGradient>
		
			<linearGradient id="path3068-5_2_" gradientUnits="userSpaceOnUse" x1="83.8254" y1="266.3834" x2="781.7844" y2="266.3834" gradientTransform="matrix(0.9013 0 0 -1.1095 -68.4123 691.463)">
			<stop  offset="0" style="stop-color:#729FCF"/>
			<stop  offset="1" style="stop-color:#204A87"/>
		</linearGradient>
		<path id="path3068-5" sodipodi:nodetypes="csszssz" class="st0" d="M319,19.3c-166.2,0-301.3,59.3-301.3,132.1
			c0,5.2,0,483.5,0,488.9c0,72.9,135.1,132.1,301.3,132.1s306.7-59.3,306.7-132.1c0-4.3,0-484.6,0-488.9
			C625.7,78.6,485.2,19.3,319,19.3L319,19.3z"/>
		
			<linearGradient id="path4174-0_1_" gradientUnits="userSpaceOnUse" x1="-649.6343" y1="820.712" x2="-628.8251" y2="778.1406" gradientTransform="matrix(21.1429 0 0 -21.1429 13923.7363 17473.0508)">
			<stop  offset="0" style="stop-color:#3977C3"/>
			<stop  offset="1" style="stop-color:#89AEDC;stop-opacity:0"/>
		</linearGradient>
		<path id="path4174-0" sodipodi:nodetypes="csszssz" class="st1" d="M319.2,35.8C164.3,35.8,38.3,91,38.3,159
			c0,4.9,0,462.7,0,467.8c0,68,126,123.2,280.9,123.2c154.9,0,285.9-55.2,285.9-123.2c0-4,0-463.8,0-467.8
			C605.1,91,474.1,35.8,319.2,35.8z"/>
		
			<linearGradient id="path3364-7_1_" gradientUnits="userSpaceOnUse" x1="-644.5272" y1="817.6285" x2="-644.5272" y2="820.8687" gradientTransform="matrix(21.9313 0 0 -20.1834 14455.6709 16701.7246)">
			<stop  offset="0" style="stop-color:#FFFFFF"/>
			<stop  offset="1" style="stop-color:#729FCF"/>
		</linearGradient>
		
			<path id="path3364-7" sodipodi:cx="24" sodipodi:cy="14.071428" sodipodi:rx="12.857142" sodipodi:ry="5.5" sodipodi:type="arc" class="st2" d="
			M602.3,149.7c0,61.3-126.2,111-282,111s-282-49.7-282-111s126.2-111,282-111S602.3,88.4,602.3,149.7z"/>
		
			<linearGradient id="path6922-9_1_" gradientUnits="userSpaceOnUse" x1="-650.0997" y1="814.8854" x2="-650.3854" y2="804.3854" gradientTransform="matrix(21.1429 0 0 -21.1429 13920.7158 17528.9277)">
			<stop  offset="0" style="stop-color:#FFFFFF"/>
			<stop  offset="1" style="stop-color:#FFFFFF;stop-opacity:0"/>
		</linearGradient>
		<path id="path6922-9" sodipodi:nodetypes="ccccccc" class="st3" d="M101.3,247.8l7.6,354.9l96.7,27.2l-3-353.4
			c0,0,43.8,0,114.8-4.5C207,267.1,80.9,219.7,37.9,188.9C67.9,233.2,101.3,247.8,101.3,247.8L101.3,247.8z"/>
		<path id="path12-0" class="st4" d="M76.5,579.6h16.1v-63.7l25.1,55.6c2.8,6.7,6.9,9.2,14.9,9.2c7.9,0,11.8-2.5,14.7-9.2l25-55.6
			v63.7h16.2v-63.7c0-6.2-2.5-9.2-7.7-10.8c-12.3-3.7-20.4-0.5-24.1,7.8l-24.6,55l-23.8-55c-3.6-8.3-11.9-11.5-24.3-7.8
			c-5.1,1.6-7.5,4.6-7.5,10.8L76.5,579.6L76.5,579.6L76.5,579.6z"/>
		<path id="path14-5" class="st4" d="M201.9,527.7h16.2v35c-0.1,2,0.6,6.4,9.4,6.6c4.6,0.1,34.9,0,35.2,0v-41.8h16.2
			c0,0,0,57.1,0,57.3c0,14.1-17.5,17.2-25.6,17.3h-51v-10.8c0.1,0,51,0,51.1,0c10.4-1.1,9.2-6.3,9.2-8v-4.2h-34.3
			c-16-0.1-26.2-7.2-26.4-15.2C201.9,563.1,202.2,528,201.9,527.7L201.9,527.7L201.9,527.7z"/>
		<path id="path16-3" class="st4" d="M549.7,487.1c-9.9-0.2-17.6,0.7-24,3.5c-1.9,0.7-4.8,0.7-5.1,3.1c1,1,1.1,2.6,2,4
			c1.5,2.5,4.1,5.8,6.4,7.6c2.6,2,5.2,4,7.9,5.7c4.8,3,10.3,4.7,15,7.7c2.7,1.7,5.4,4,8.2,5.8c1.4,1,2.2,2.6,4,3.2
			c0-0.1,0-0.2,0-0.4c-0.9-1.1-1.1-2.7-2-4c-1.2-1.2-2.5-2.4-3.7-3.6c-3.6-4.8-8-9-12.9-12.5c-4-2.7-12.6-6.4-14.2-11
			c0,0-0.1-0.1-0.2-0.2c2.7-0.2,5.9-1.2,8.5-2c4.2-1.1,8-0.9,12.4-2c2-0.5,4-1.1,5.9-1.7c0-0.4,0-0.7,0-1.1
			c-2.2-2.2-3.8-5.2-6.2-7.3c-6.3-5.4-13.2-10.8-20.4-15.2c-3.8-2.5-8.8-4.1-12.9-6.2c-1.5-0.7-4-1.1-4.8-2.4
			c-2.2-2.7-3.5-6.3-5.1-9.5c-3.6-6.8-7.1-14.4-10.1-21.5c-2.2-4.8-3.6-9.7-6.3-14.1c-12.7-21-26.6-33.8-47.9-46.3
			c-4.6-2.6-10-3.7-15.8-5.1c-3.1-0.1-6.2-0.4-9.3-0.5c-2-0.9-4-3.2-5.7-4.3c-7.1-4.5-25.2-14.1-30.4-1.4c-3.3,8,5,16,7.8,20.1
			c2.1,2.8,4.8,6.1,6.3,9.3c0.9,2.1,1.1,4.3,2,6.6c2,5.4,3.8,11.5,6.4,16.6c1.4,2.6,2.8,5.3,4.6,7.7c1,1.4,2.7,2,3.1,4.2
			c-1.7,2.5-1.9,6.2-2.8,9.3c-4.5,14-2.7,31.3,3.6,41.6c2,3.1,6.7,9.9,13,7.3c5.6-2.2,4.3-9.3,5.9-15.5c0.4-1.5,0.1-2.5,0.9-3.5
			c0,0.1,0,0.2,0,0.2c1.7,3.5,3.5,6.8,5.1,10.3c3.8,6.1,10.5,12.4,16.1,16.6c3,2.2,5.3,6.1,9,7.4c0-0.1,0-0.2,0-0.4
			c-0.1,0-0.1,0-0.2,0c-0.7-1.1-1.9-1.6-2.8-2.5c-2.2-2.2-4.7-5-6.4-7.4c-5.2-6.9-9.8-14.6-13.9-22.5c-2-3.8-3.7-8-5.3-11.9
			c-0.7-1.5-0.7-3.7-2-4.5c-1.9,2.7-4.6,5.1-5.9,8.4c-2.4,5.3-2.6,11.9-3.5,18.7c-0.5,0.1-0.2,0-0.5,0.2c-4-1-5.3-5.1-6.8-8.5
			c-3.7-8.8-4.3-22.9-1.1-33c0.9-2.6,4.6-10.8,3.1-13.2c-0.7-2.4-3.2-3.7-4.6-5.6c-1.6-2.4-3.3-5.3-4.5-7.9
			c-3-6.9-4.5-14.6-7.7-21.5c-1.5-3.2-4.1-6.6-6.2-9.5c-2.4-3.3-5-5.7-6.8-9.7c-0.6-1.4-1.5-3.6-0.5-5.1c0.2-1,0.7-1.4,1.7-1.6
			c1.6-1.4,6.2,0.4,7.8,1.1c4.6,1.9,8.4,3.6,12.3,6.2c1.7,1.2,3.6,3.6,5.8,4.2c0.9,0,1.7,0,2.6,0c4,0.9,8.4,0.2,12.1,1.4
			c6.6,2.1,12.5,5.2,17.8,8.5c16.2,10.3,29.6,24.9,38.6,42.3c1.5,2.8,2.1,5.4,3.5,8.4c2.6,6.1,5.8,12.3,8.4,18.2
			c2.6,5.8,5.1,11.8,8.8,16.6c1.9,2.6,9.3,4,12.6,5.3c2.5,1.1,6.3,2.1,8.5,3.5c4.2,2.6,8.4,5.6,12.4,8.4
			C543.1,481.6,549.3,484.7,549.7,487.1L549.7,487.1L549.7,487.1z"/>
		<path id="path18-4" class="st5" d="M423.4,379.6c-2.1,0-3.6,0.2-5.1,0.6c0,0,0,0.1,0,0.2c0.1,0,0.1,0,0.2,0c1,2,2.7,3.3,4,5.1
			c1,2,1.9,4,2.8,5.9c0.1-0.1,0.2-0.2,0.2-0.2c1.7-1.2,2.6-3.2,2.6-6.2c-0.7-0.9-0.9-1.7-1.5-2.6C426,381.2,424.4,380.6,423.4,379.6
			L423.4,379.6L423.4,379.6z"/>
		<path id="path20-1" class="st6" d="M291.2,579.6h46.5c5.4,0,10.6-1.1,14.9-3.1c7.1-3.2,10.4-7.5,10.4-13.2v-11.9
			c0-4.6-3.8-8.9-11.5-11.9c-4-1.5-8.9-2.4-13.7-2.4h-19.6c-6.6,0-9.7-2-10.5-6.3c-0.1-0.5-0.1-1-0.1-1.5V522c0-0.4,0-0.9,0.1-1.4
			c0.9-3.3,2.6-4.2,8.3-4.8c0.5,0,1.1,0,1.5,0h46.2v-10.8h-45.3c-6.6,0-10,0.4-13.1,1.4c-9.5,3-13.7,7.7-13.7,16v9.4
			c0,7.3,8.2,13.5,22,15c1.5,0.1,3.1,0.1,4.7,0.1h16.7c0.6,0,1.2,0,1.7,0.1c5.1,0.5,7.3,1.4,8.8,3.2c1,1,1.2,1.9,1.2,3l0,9.4
			c0,1.1-0.7,2.6-2.2,3.8c-1.5,1.2-3.8,2.1-6.9,2.2c-0.6,0-1,0.1-1.6,0.1l-44.7,0L291.2,579.6L291.2,579.6L291.2,579.6z"/>
		<path id="path22-0" class="st6" d="M463.8,560.9c0,11,8.3,17.2,24.9,18.4c1.6,0.1,3.1,0.2,4.7,0.2h42.1v-10.8H493
			c-9.4,0-13-2.4-13-8l0-55.7h-16.2V560.9L463.8,560.9L463.8,560.9z"/>
		<path id="path24-4" class="st6" d="M373.3,561.4V523c0-9.8,6.9-15.7,20.4-17.6c1.5-0.1,3-0.2,4.3-0.2l30.7,0c1.6,0,3,0.1,4.6,0.2
			c13.5,1.9,20.3,7.8,20.3,17.6l0,38.4c0,7.9-2.8,12.1-9.5,15l15.8,14.4h-18.7l-12.9-11.6l-13,0.7H398c-2.8,0-6.1-0.4-9.4-1.2
			C378.4,575.8,373.3,570.3,373.3,561.4L373.3,561.4L373.3,561.4z M390.7,560.5c0,0.5,0.2,1,0.4,1.6c0.9,4.5,5.1,6.9,11.5,6.9h14.6
			l-13.4-12.1h18.7l11.8,10.6c2.2-1.2,3.6-3,4.1-5.2c0.1-0.5,0.1-1.1,0.1-1.6V524c0-0.5,0-1-0.1-1.5c-0.9-4.2-5.1-6.6-11.4-6.6
			h-24.4c-7.2,0-11.9,3.1-11.9,8L390.7,560.5L390.7,560.5L390.7,560.5z"/>
		<path id="path26-8" class="st6" d="M542.9,579.7h2.4v-9h3.1v-1.9h-8.7v1.9h3.2V579.7L542.9,579.7z M560.8,579.7h2.2v-10.9h-3.3
			l-2.7,7.4l-3-7.4h-3.2v10.9h2.1v-8.3h0.1l3.1,8.3h1.6l3.1-8.3V579.7L560.8,579.7z"/>
	</g>
</g>
</svg>
