<svg xmlns="http://www.w3.org/2000/svg" width="77.021" height="70.983" viewBox="0 0 77.021 70.983">
  <path id="Trazado_229" data-name="Trazado 229" d="M206.823,291.808c0-.771,0-2.634-.321-6.231,0-.514.064-.642.514-.835a66.7,66.7,0,0,1,23.511-4.432c.514,0,.771.129.771.642v9.315c0,.514-.193.642-.707.642-4.047-.193-9.893.321-12.141,1.285v40.47c0,.514-.193.771-.771.771H207.594c-.514,0-.771-.193-.771-.771V291.808Zm-41.112,5.846c1.477.128,2.634.128,5.2.128,7.516,0,14.582-2.634,14.582-12.847,0-8.158-5.011-12.27-13.619-12.27-2.569,0-5.01.128-6.167.193Zm-11.37-34.111c0-.45.128-.771.642-.771,4.111-.193,10.15-.321,16.509-.321,17.794,0,25.567,9.764,25.567,22.291,0,16.316-11.82,23.318-26.337,23.318-2.441,0-3.276-.129-5.011-.129V332.6c0,.514-.193.771-.771.771h-9.893c-.514,0-.771-.193-.771-.771V263.543h.065Z" transform="translate(-154.276 -262.451)" fill="#e473ff"/>
</svg>
