<svg xmlns="http://www.w3.org/2000/svg" width="40" height="40" viewBox="0 0 40 40">
  <g id="Grupo_267" data-name="Grupo 267" transform="translate(-521 -333)">
    <circle id="Elipse_4" data-name="Elipse 4" cx="20" cy="20" r="20" transform="translate(521 333)" fill="#fff"/>
    <path id="_036-facebook2" data-name="036-facebook2" d="M166.681,79.413l-.356,3a.57.57,0,0,1-.566.5h-3.212l-.019,9.292h-4.051l.019-9.292h-2.417a.567.567,0,0,1-.566-.566l-.013-3a.569.569,0,0,1,.566-.572h2.41V75.883c0-3.358,2.054-5.183,5.05-5.183h2.455a.57.57,0,0,1,.572.572V73.8a.574.574,0,0,1-.572.572h-1.507c-1.628,0-1.946.776-1.946,1.908v2.506h3.581A.566.566,0,0,1,166.681,79.413Z" transform="translate(379.544 271.114)" fill="#131313"/>
  </g>
</svg>
