<svg xmlns="http://www.w3.org/2000/svg" width="68" height="68" viewBox="0 0 68 68">
  <g id="Grupo_261" data-name="Grupo 261" transform="translate(-401 -36)">
    <rect id="Rectángulo_2" data-name="Rectángulo 2" width="68" height="68" transform="translate(401 36)" fill="#006fff"/>
    <g id="Grupo_240" data-name="Grupo 240" transform="translate(478.305 -76.82)">
      <path id="Trazado_386" data-name="Trazado 386" d="M-63.675,680.285c0,.26-.005.521,0,.781.006.213-.091.3-.3.3a4.794,4.794,0,0,1-2.007-.4.685.685,0,0,1-.085-1.1,4.754,4.754,0,0,1,2.1-.654c.214-.023.306.079.3.29-.006.26,0,.521,0,.781Z" transform="translate(0 -515.979)" fill="#fff"/>
      <path id="Trazado_387" data-name="Trazado 387" d="M-54.207,507.349c-.32.526-.316.531-.873.248a7.351,7.351,0,0,1-2.159-1.627,7.453,7.453,0,0,1,2.973,1.068C-54.135,507.12-54.123,507.21-54.207,507.349Z" transform="translate(-8.498 -353.57)" fill="#fff"/>
      <path id="Trazado_388" data-name="Trazado 388" d="M8.9,536.848c-.521.144-1.026.257-1.512.425a2.22,2.22,0,0,1-1.46-.072,54.453,54.453,0,0,1-7.63-3.033,53.219,53.219,0,0,1-5.913-3.375c-.159-.106-.265-.194-.127-.393.125-.179.228-.3.474-.143a51.245,51.245,0,0,0,6.2,3.245,52.772,52.772,0,0,0,9.651,3.211c.081.019.163.036.243.058C8.841,536.773,8.852,536.8,8.9,536.848Z" transform="translate(-54.844 -376.271)" fill="#fff"/>
      <path id="Trazado_389" data-name="Trazado 389" d="M361.058,633.07a6.044,6.044,0,0,1-1.888.625,54.257,54.257,0,0,1-7.695,1.089c-1.873.127-3.747.154-5.621.1a35.419,35.419,0,0,1-4.894-.44c.832-.353,1.654-.734,2.5-1.045a3.419,3.419,0,0,1,1.335-.021,45.5,45.5,0,0,0,4.59-.048,52.733,52.733,0,0,0,6.02-.663c.677-.116,1.358-.223,2.025-.383a13.875,13.875,0,0,1,3.387-.24c.394,0,.393.34.482.593C361.381,632.868,361.234,632.964,361.058,633.07Z" transform="translate(-381.802 -471.756)" fill="#fff"/>
      <path id="Trazado_390" data-name="Trazado 390" d="M568.759,462.337a30.187,30.187,0,0,1-2.709,3.252c-.133.136-.214.108-.318-.034q-.68-.933-1.374-1.856c-.1-.127-.12-.219.057-.279a29.051,29.051,0,0,1,4.246-1.125C568.678,462.292,568.7,462.31,568.759,462.337Z" transform="translate(-591.163 -312.625)" fill="#fff"/>
      <path id="Trazado_391" data-name="Trazado 391" d="M18.834,487.466a20.813,20.813,0,0,0-1.489-2.006c-.3-.343-.291-.344-.628-.073a52.73,52.73,0,0,1-7.646,5.129,53.383,53.383,0,0,1-14.818,5.522,53.265,53.265,0,0,1-10.821,1.153h-1.781c-.381,0-.432.042-.44.43-.011.52-.009,1.042-.007,1.562,0,.4.044.453.443.471,1.019.047,2.039.114,3.059.119a56.536,56.536,0,0,0,6.577-.359,53.326,53.326,0,0,0,8.48-1.671,53.146,53.146,0,0,0,10.312-4.116,54.44,54.44,0,0,0,8.69-5.694A.291.291,0,0,0,18.834,487.466Zm-8.881,4.9q-1.225.657-2.508,1.194c-.077.032-.155.06-.221.085-.189-.01-.218-.157-.269-.277a.274.274,0,0,1,.107-.378c.415-.278.818-.575,1.238-.845.49-.315,1-.606,1.489-.917.176-.11.294-.1.411.085C10.729,492.155,10.714,491.962,9.953,492.371Zm3.37-2.041c-.758.531-1.541,1.02-2.342,1.484a.225.225,0,0,1-.358-.093c-.531-.858-.549-.638.244-1.072.655-.359,1.339-.666,2.015-.985a.413.413,0,0,1,.608.423C13.5,490.21,13.409,490.269,13.323,490.329Z" transform="translate(-44.537 -334.092)" fill="#fff"/>
      <path id="Trazado_392" data-name="Trazado 392" d="M67.348,139.679A17.309,17.309,0,0,0,51.311,128.82c-.586,0-1.169.031-1.751.074a1.22,1.22,0,0,0-.806.345,15.639,15.639,0,0,1-2.767,2.082,17.261,17.261,0,0,1-6.4,2.291.827.827,0,0,0-.489.244,17.243,17.243,0,0,0-4.659,8.419.767.767,0,0,0,.043.516,17.006,17.006,0,0,0,2.418,3.926.931.931,0,0,1,.239.768,9.851,9.851,0,0,0,.026,2.37,2.256,2.256,0,0,0,.525,1.43,21.688,21.688,0,0,0,1.779,1.753,1.029,1.029,0,0,1,.391.677,16.761,16.761,0,0,0,1.109,3.768c.1.249.209.336.486.193a2.057,2.057,0,0,1,1.924.012c.144.07.268.14.423,0a2.185,2.185,0,0,1,3.07.1c.1.1.174.134.271,0a2.188,2.188,0,0,1,3.036-.458c.129.1.235.106.332-.051a2.176,2.176,0,0,1,3.276-.42c.114.1.2.118.314-.008a2.185,2.185,0,0,1,2.723-.322c.1.067.209.127.316.036a2.181,2.181,0,0,0,.835-1.1,7.889,7.889,0,0,0,.2-1.295.635.635,0,0,1,.38-.579,16.635,16.635,0,0,0,3.4-2.423,17.214,17.214,0,0,0,5.466-10.414A1.959,1.959,0,0,0,67.348,139.679Zm-21.6,5.967a10.218,10.218,0,0,0-1.658,4.238c-.091.6-.365.8-.961.744a12.013,12.013,0,0,1-2.419-.457,1.108,1.108,0,0,1-.547-.334,17.511,17.511,0,0,1-3.6-6.51.51.51,0,0,1,.164-.556,6.35,6.35,0,0,1,4.326-2.021,6.985,6.985,0,0,1,3.314.69,1.032,1.032,0,0,1,.4.339,6.654,6.654,0,0,1,1.187,2.988A1.184,1.184,0,0,1,45.747,145.646Zm4.765,9.132c-.089.07-.176-.009-.257-.049a10.289,10.289,0,0,1-1.381-.85c-.157-.112-.25-.1-.354.061-.15.225-.317.439-.473.66a.283.283,0,0,1-.378.109,9.534,9.534,0,0,1-1.321-.635.315.315,0,0,1-.173-.36,10.337,10.337,0,0,1,1.1-3.431.345.345,0,0,1,.324-.2c.177,0,.354,0,.531,0v-.009c.083,0,.167.007.249,0a.589.589,0,0,1,.644.368,8.3,8.3,0,0,0,1.1,1.587.817.817,0,0,1,.22.564,10.112,10.112,0,0,0,.184,1.955C50.542,154.62,50.587,154.72,50.512,154.778Zm13.161-12.886a17.12,17.12,0,0,0-2.891,4.241A17.511,17.511,0,0,0,59.466,150c-.087.394-.109.413-.343.406a18.078,18.078,0,0,1-5.886-1.253.724.724,0,0,1-.391-.38,18.159,18.159,0,0,1-1.775-5.537.566.566,0,0,1,.21-.572,17.417,17.417,0,0,1,9.174-4.142.713.713,0,0,1,.576.157,19.415,19.415,0,0,1,2.7,2.637C63.94,141.554,63.85,141.7,63.674,141.892Z" transform="translate(-94.421)" fill="#fff"/>
    </g>
  </g>
</svg>
