<svg xmlns="http://www.w3.org/2000/svg" width="17.164" height="21.083" viewBox="0 0 17.164 21.083">
  <g id="pdf-file" transform="translate(-44.806)">
    <path id="Trazado_382" data-name="Trazado 382" d="M119.56,297.971c0-.35-.243-.559-.672-.559a1.488,1.488,0,0,0-.356.034v1.123a1.347,1.347,0,0,0,.288.022C119.278,298.591,119.56,298.36,119.56,297.971Z" transform="translate(-70.503 -284.407)" fill="#fff"/>
    <path id="Trazado_383" data-name="Trazado 383" d="M194.193,297.681a1.771,1.771,0,0,0-.389.034V300.2a1.555,1.555,0,0,0,.3.017,1.179,1.179,0,0,0,1.287-1.331A1.091,1.091,0,0,0,194.193,297.681Z" transform="translate(-142.483 -284.664)" fill="#fff"/>
    <path id="Trazado_384" data-name="Trazado 384" d="M56.641,0H48.173a2.247,2.247,0,0,0-2.244,2.244v8.3H45.71a.9.9,0,0,0-.9.9v5.484a.9.9,0,0,0,.9.9h.219v1.006a2.246,2.246,0,0,0,2.244,2.244H59.727a2.246,2.246,0,0,0,2.243-2.244V5.311ZM47.178,12.435a7.088,7.088,0,0,1,1.162-.079,1.823,1.823,0,0,1,1.162.3,1.112,1.112,0,0,1,.406.88,1.216,1.216,0,0,1-.35.9,1.764,1.764,0,0,1-1.236.4,2.227,2.227,0,0,1-.294-.017v1.36h-.852Zm12.549,7.273H48.173a.87.87,0,0,1-.869-.87V17.833h10.77a.9.9,0,0,0,.9-.9V11.446a.9.9,0,0,0-.9-.9H47.3v-8.3a.87.87,0,0,1,.869-.868l7.954-.008v2.94a1.557,1.557,0,0,0,1.556,1.556l2.88-.008L60.6,18.839A.87.87,0,0,1,59.727,19.708ZM50.458,16.17V12.435a7.745,7.745,0,0,1,1.162-.079,2.449,2.449,0,0,1,1.557.406,1.683,1.683,0,0,1,.643,1.433,1.928,1.928,0,0,1-.632,1.54,2.73,2.73,0,0,1-1.755.491A7.444,7.444,0,0,1,50.458,16.17Zm6.158-2.212v.7H55.251v1.529h-.863v-3.8h2.325v.7H55.251v.869Z" fill="#fff"/>
  </g>
</svg>
