<svg xmlns="http://www.w3.org/2000/svg" width="21.142" height="21.094" viewBox="0 0 21.142 21.094">
  <path id="Trazado_385" data-name="Trazado 385" d="M20.667,17.078,17.4,13.813a1.7,1.7,0,0,0-2.4.045L13.357,15.5l-.325-.181A16.369,16.369,0,0,1,9.076,12.46,16.46,16.46,0,0,1,6.209,8.5c-.061-.11-.119-.216-.177-.317l1.1-1.1.543-.543a1.7,1.7,0,0,0,.044-2.4L4.457.867a1.7,1.7,0,0,0-2.4.045l-.639.607-.281.319L.922,2.2.4,3.2A5.545,5.545,0,0,0,.066,4.557C-.365,8.131,1.269,11.4,5.7,15.83c6.127,6.127,11.065,5.664,11.278,5.641a5.517,5.517,0,0,0,1.36-.342,5.3,5.3,0,0,0,1.333-.755l.952-.895A1.7,1.7,0,0,0,20.667,17.078Z" transform="translate(0 -0.394)" fill="#fff"/>
</svg>
