<svg xmlns="http://www.w3.org/2000/svg" width="54.902" height="47.334" viewBox="0 0 54.902 47.334">
  <g id="graphic-tool" transform="translate(0 -35.287)">
    <g id="Grupo_22" data-name="Grupo 22" transform="translate(24.638 35.287)">
      <g id="Grupo_21" data-name="Grupo 21" transform="translate(0 0)">
        <path id="Trazado_12" data-name="Trazado 12" d="M242.172,43l-5.229-7.262a1.072,1.072,0,0,0-1.74,0L229.974,43a1.072,1.072,0,0,0-.2.627V78.591a4.017,4.017,0,0,0,4.013,4.013h4.577a4.017,4.017,0,0,0,4.013-4.013V43.622A1.072,1.072,0,0,0,242.172,43Zm-6.1-4.8,3.259,4.526h-6.518Zm-4.157,6.67h5.091V72.64h-1.87V52.158a1.072,1.072,0,1,0-2.144,0V72.64h-1.077Zm8.313,33.725a1.87,1.87,0,0,1-1.868,1.868h-4.577a1.87,1.87,0,0,1-1.868-1.868V74.784h8.313Zm0-5.951h-1.077V44.866h1.077Z" transform="translate(-229.772 -35.288)" fill="#fff"/>
      </g>
    </g>
    <g id="Grupo_24" data-name="Grupo 24" transform="translate(27.86 46.779)">
      <g id="Grupo_23" data-name="Grupo 23">
        <path id="Trazado_13" data-name="Trazado 13" d="M261.943,143.324a1.134,1.134,0,0,0-.061-.2,1.089,1.089,0,0,0-.1-.184,1.026,1.026,0,0,0-.133-.163,1.094,1.094,0,0,0-.163-.134,1.052,1.052,0,0,0-.186-.1,1.082,1.082,0,0,0-.2-.062,1.1,1.1,0,0,0-.419,0,1.135,1.135,0,0,0-.2.062,1.078,1.078,0,0,0-.185.1,1.074,1.074,0,0,0-.4.481,1.134,1.134,0,0,0-.061.2,1.073,1.073,0,0,0,1.052,1.282,1.055,1.055,0,0,0,.209-.021,1.078,1.078,0,0,0,.2-.061,1.057,1.057,0,0,0,.186-.1,1.042,1.042,0,0,0,.3-.3,1.059,1.059,0,0,0,.1-.186,1.082,1.082,0,0,0,.061-.2,1.056,1.056,0,0,0,.021-.209A1.075,1.075,0,0,0,261.943,143.324Z" transform="translate(-259.82 -142.462)" fill="#fff"/>
      </g>
    </g>
    <g id="Grupo_26" data-name="Grupo 26" transform="translate(0 35.287)">
      <g id="Grupo_25" data-name="Grupo 25" transform="translate(0 0)">
        <path id="Trazado_14" data-name="Trazado 14" d="M10.43,55.37v-.163a1.535,1.535,0,0,1,1.533-1.533h.045l3.266-.138a3.48,3.48,0,0,0-.025-6.959h-7.3A1.337,1.337,0,0,1,6.616,45.24a1.312,1.312,0,0,1,.4-.942,1.278,1.278,0,0,1,.9-.373h6.423a4.319,4.319,0,0,0,0-8.638H7.073a1.072,1.072,0,1,0,0,2.145h7.264a2.175,2.175,0,0,1,0,4.349H7.959A3.456,3.456,0,0,0,4.471,45.24a3.484,3.484,0,0,0,3.48,3.48h7.3a1.335,1.335,0,0,1,0,2.67H15.2l-3.266.138a3.682,3.682,0,0,0-3.653,3.679v.162A9.372,9.372,0,0,0,0,64.668v8.594a9.36,9.36,0,1,0,18.719,0V64.668A9.373,9.373,0,0,0,10.43,55.37Zm-8.285,9.3a7.226,7.226,0,0,1,6.143-7.135v8.746H2.145Zm14.43,8.594a7.215,7.215,0,1,1-14.43,0V68.423h14.43Zm0-6.983H10.432V57.532a7.226,7.226,0,0,1,6.143,7.135Z" transform="translate(0 -35.287)" fill="#fff"/>
      </g>
    </g>
    <g id="Grupo_28" data-name="Grupo 28" transform="translate(1.872 35.287)">
      <g id="Grupo_27" data-name="Grupo 27" transform="translate(0 0)">
        <path id="Trazado_15" data-name="Trazado 15" d="M19.584,36.152a1.135,1.135,0,0,0-.061-.2,1.088,1.088,0,0,0-.1-.184,1.02,1.02,0,0,0-.133-.163,1.072,1.072,0,0,0-1.516,0,1.088,1.088,0,0,0-.232.347,1.072,1.072,0,0,0-.062.62,1.017,1.017,0,0,0,.062.2,1,1,0,0,0,.1.186,1.041,1.041,0,0,0,.3.3,1.088,1.088,0,0,0,.184.1,1.119,1.119,0,0,0,.2.061,1.056,1.056,0,0,0,.209.021,1.08,1.08,0,0,0,.758-.314,1.019,1.019,0,0,0,.133-.163,1.058,1.058,0,0,0,.1-.186,1.083,1.083,0,0,0,.061-.2,1.056,1.056,0,0,0,.021-.209A1.075,1.075,0,0,0,19.584,36.152Z" transform="translate(-17.461 -35.29)" fill="#fff"/>
      </g>
    </g>
    <g id="Grupo_30" data-name="Grupo 30" transform="translate(42.1 35.287)">
      <g id="Grupo_29" data-name="Grupo 29" transform="translate(0 0)">
        <path id="Trazado_16" data-name="Trazado 16" d="M405.408,45.988A6.591,6.591,0,0,0,402.99,41.2c-1.108-1.089-1.777-1.746-1.145-3.9a1.506,1.506,0,0,0-.368-1.706,1.56,1.56,0,0,0-1.818-.047,15.344,15.344,0,0,0-4.379,4.2c-1.278,1.731-2.777,4.323-2.659,6.841a7.025,7.025,0,0,0,2.19,4.825,5.2,5.2,0,0,0-1.026,3.107,5.267,5.267,0,0,0,.424,2.079V77.553a4.625,4.625,0,1,0,9.251,0V57.29a5.246,5.246,0,0,0-.218-5.847A6.977,6.977,0,0,0,405.408,45.988Zm-4.093,31.565a2.481,2.481,0,1,1-4.961,0V59.028a5.256,5.256,0,0,0,1.859.659,1.072,1.072,0,0,0,.164.013h1.279a1.07,1.07,0,0,0,.164-.013c.071-.011.141-.024.211-.037l.133-.029.057-.013a5.252,5.252,0,0,0,1.1-.387Zm-.85-20.312-.013.007-.094.048-.045.021-.072.033-.069.029-.056.023-.087.032-.045.016-.1.031-.038.011-.109.028-.031.008q-.07.016-.141.029h-1.1c-.052-.009-.1-.02-.154-.032l-.061-.015-.091-.025-.076-.023-.057-.019a3.083,3.083,0,0,1-.888-5.366l.086-.064q.074-.053.151-.1l.068-.042q.107-.064.219-.119l.022-.011q.065-.031.131-.06l.022-.009q.115-.048.236-.087l.075-.023q.081-.024.164-.043c.042-.01.085-.019.128-.027l.087-.016c.067-.011.135-.019.2-.026l.056,0c.077-.006.155-.01.233-.01s.158,0,.236.01l.055,0c.068.006.136.015.2.026l.091.016c.043.008.086.018.128.028s.111.028.166.044l.068.021q.115.037.227.083l.033.013a3.072,3.072,0,0,1,.375.192l.079.05q.073.047.143.1.049.035.1.073a3.081,3.081,0,0,1-.451,5.15ZM401.643,50l-.071-.038c-.056-.032-.113-.062-.17-.091l-.088-.045a5.2,5.2,0,0,0-.592-.246l-.034-.011c-.1-.034-.2-.066-.309-.094h0a5.187,5.187,0,0,0-.649-.131l-.061-.008q-.128-.016-.258-.026l-.077-.006c-.106-.006-.212-.011-.319-.011s-.211,0-.315.01l-.075.006q-.128.009-.255.025l-.059.008a5.183,5.183,0,0,0-.95.221l-.026.009q-.145.049-.286.107l-.024.009c-.1.041-.2.084-.29.13l-.061.032c-.065.033-.13.066-.193.1l-.056.03a4.859,4.859,0,0,1-1.66-3.49c-.072-1.537.829-3.641,2.472-5.772a17.113,17.113,0,0,1,2.245-2.423,5.164,5.164,0,0,0,2.007,4.437,4.541,4.541,0,0,1,1.778,3.359A4.811,4.811,0,0,1,401.643,50Z" transform="translate(-392.614 -35.289)" fill="#fff"/>
      </g>
    </g>
  </g>
</svg>
