<svg xmlns="http://www.w3.org/2000/svg" width="52.687" height="47.334" viewBox="0 0 52.687 47.334">
  <g id="paint-palette-and-brush" transform="translate(0 -16.512)">
    <path id="Trazado_43" data-name="Trazado 43" d="M49.008,206.168a4.3,4.3,0,0,0-2.658-.923,4.26,4.26,0,0,0-3.336,1.592,4.222,4.222,0,0,0,.678,5.966,4.3,4.3,0,0,0,2.657.923,4.257,4.257,0,0,0,3.336-1.594,4.221,4.221,0,0,0-.678-5.964Zm-.839,4.746a2.342,2.342,0,0,1-3.271.364,2.277,2.277,0,0,1-.368-3.221,2.345,2.345,0,0,1,3.272-.363,2.276,2.276,0,0,1,.368,3.22Z" transform="translate(-35.259 -158.141)" fill="#fff"/>
    <path id="Trazado_44" data-name="Trazado 44" d="M168.216,105.639a4.265,4.265,0,0,0,4.026-2.849,4.186,4.186,0,0,0-.189-3.233,4.283,4.283,0,0,0-5.7-1.981,4.225,4.225,0,0,0-1.993,5.663A4.3,4.3,0,0,0,168.216,105.639Zm-2.2-4.992a2.285,2.285,0,0,1,1.183-1.315,2.338,2.338,0,0,1,3.108,1.075,2.256,2.256,0,0,1,.1,1.742,2.289,2.289,0,0,1-1.183,1.317,2.323,2.323,0,0,1-1.007.229,2.347,2.347,0,0,1-2.1-1.306A2.254,2.254,0,0,1,166.013,100.647Z" transform="translate(-137.365 -67.573)" fill="#fff"/>
    <path id="Trazado_45" data-name="Trazado 45" d="M107.857,63.795a4.325,4.325,0,0,0,.951.106,4.241,4.241,0,0,0,4.16-3.295,4.2,4.2,0,0,0-.544-3.19,4.241,4.241,0,0,0-2.671-1.887,4.323,4.323,0,0,0-.956-.108,4.237,4.237,0,0,0-4.156,3.3,4.186,4.186,0,0,0,.541,3.19A4.235,4.235,0,0,0,107.857,63.795Zm-1.318-4.641a2.3,2.3,0,0,1,2.26-1.787,2.376,2.376,0,0,1,.525.059,2.309,2.309,0,0,1,1.455,1.027,2.261,2.261,0,0,1,.294,1.719,2.334,2.334,0,0,1-2.264,1.785,2.381,2.381,0,0,1-.523-.059,2.3,2.3,0,0,1-1.455-1.025A2.255,2.255,0,0,1,106.538,59.153Z" transform="translate(-87.589 -32.602)" fill="#fff"/>
    <path id="Trazado_46" data-name="Trazado 46" d="M41.539,82.983a4.226,4.226,0,0,0,.676-5.966,4.294,4.294,0,0,0-5.994-.67,4.222,4.222,0,0,0-.676,5.967,4.288,4.288,0,0,0,5.994.67Zm-4.478-1.89a2.277,2.277,0,0,1,.366-3.221,2.349,2.349,0,0,1,3.273.363,2.281,2.281,0,0,1-.369,3.222,2.344,2.344,0,0,1-3.27-.365Z" transform="translate(-29 -49.364)" fill="#fff"/>
    <path id="Trazado_47" data-name="Trazado 47" d="M52.315,24.1a1.284,1.284,0,0,0-.941-.372c-.555,0-2.029,0-10.98,7.617l-.544.464a23.866,23.866,0,0,0-22.327-15.3h0a23.418,23.418,0,0,0-11.135,3.2C2.266,22.134,0,25.371,0,28.828,0,33,2.355,34.747,4.247,36.149c1.542,1.144,2.76,2.047,2.761,4.027S5.791,43.059,4.249,44.2C2.358,45.6.005,47.348.006,51.522c0,3.456,2.269,6.694,6.387,9.117a23.436,23.436,0,0,0,11.141,3.207h.007a23.8,23.8,0,0,0,16.865-6.925,23.4,23.4,0,0,0,6.986-16.479c1.51-1.718,2.973-3.426,4.308-5.036,2.285-2.753,4.042-5.025,5.222-6.752C52.486,26.367,53.17,24.964,52.315,24.1ZM33.037,55.54a21.865,21.865,0,0,1-15.5,6.361h-.006c-6.274,0-15.582-4.361-15.584-10.379,0-3.194,1.678-4.439,3.456-5.758,1.662-1.232,3.546-2.629,3.545-5.588S7.068,35.82,5.405,34.587c-1.779-1.319-3.459-2.565-3.46-5.76,0-3.7,3.4-6.246,5.424-7.437a21.682,21.682,0,0,1,10.149-2.933h0A21.92,21.92,0,0,1,38.277,33.173c-4.218,3.683-8.787,7.93-12.189,11.343-5.65.731-6.42,4.5-6.983,7.264-.479,2.356-.79,3.494-2.608,3.64a.973.973,0,0,0-.294,1.868,17.81,17.81,0,0,0,6.147,1.185h0a9.951,9.951,0,0,0,5.772-1.631,10.047,10.047,0,0,0,3.9-6.284c2.223-2.249,4.763-4.961,7.274-7.754A21.467,21.467,0,0,1,33.037,55.54Zm-2.972-5.167c-1.031,4.084-3.624,6.154-7.715,6.154h0a14.586,14.586,0,0,1-2.98-.331,7.83,7.83,0,0,0,1.642-4.029c.534-2.627,1.04-5.114,5.174-5.7ZM43.5,35.013c-3.855,4.593-8.522,9.751-12.364,13.673l-.595-.6-2.624-2.645c3.483-3.467,7.951-7.6,12.12-11.219h0c.486-.422.969-.838,1.445-1.244a74.749,74.749,0,0,1,8.667-6.7A74.933,74.933,0,0,1,43.5,35.013Z" fill="#fff"/>
  </g>
</svg>
