<svg id="computer" xmlns="http://www.w3.org/2000/svg" width="47.334" height="47.334" viewBox="0 0 47.334 47.334">
  <path id="Trazado_48" data-name="Trazado 48" d="M306.924,346a.924.924,0,1,0,.924.924A.925.925,0,0,0,306.924,346Zm0,0" transform="translate(-277.711 -314.013)" fill="#fff"/>
  <path id="Trazado_49" data-name="Trazado 49" d="M42.712,0H4.622A4.628,4.628,0,0,0,0,4.622V32.912a4.628,4.628,0,0,0,4.622,4.622H19.045v4.253H18.12A4.624,4.624,0,0,0,13.5,46.409a.924.924,0,0,0,.924.924h18.49a.924.924,0,0,0,.924-.924,4.628,4.628,0,0,0-4.622-4.622h-.924V37.534H42.712a4.628,4.628,0,0,0,4.622-4.622V4.622A4.628,4.628,0,0,0,42.712,0ZM4.622,1.849H42.712a2.777,2.777,0,0,1,2.773,2.773V28.289H41.232V7.026a.924.924,0,0,0-.924-.924h-7.4a.924.924,0,0,0-.924.924V28.289H27.36c-.01-.956-.035-1.9-.074-2.813a59.465,59.465,0,0,0-.722-7.4,4.623,4.623,0,0,0,1.262-6.03l-3.2-5.55a.924.924,0,0,0-1.6,0l-3.206,5.55a4.622,4.622,0,0,0,1.017,5.834,58.686,58.686,0,0,0-.779,7.59c-.042.924-.068,1.867-.078,2.815H15.347V14.422a.92.92,0,0,0-.091-.4s0-.01-.006-.014l-3.7-7.4a.925.925,0,0,0-1.654,0l-3.7,7.4-.006.014a.919.919,0,0,0-.092.4V28.289H1.849V4.622A2.777,2.777,0,0,1,4.622,1.849Zm29.214,26.44V7.951h5.547V9.8h-.924a.924.924,0,1,0,0,1.849h.924v2.773h-.924a.924.924,0,1,0,0,1.849h.924v2.773h-.924a.924.924,0,1,0,0,1.849h.924v3.7h-.924a.924.924,0,1,0,0,1.849h.924v1.849ZM23.82,18.981a4.629,4.629,0,0,0,1-.111c.172,1.1.424,3.045.573,5.722H21.949c.156-2.675.42-4.651.6-5.787a4.628,4.628,0,0,0,1.268.177Zm0-1.849a2.777,2.777,0,0,1-2.4-4.157l2.4-4.163,2.4,4.163a2.775,2.775,0,0,1-2.4,4.158ZM21.865,26.44h3.607c.02.607.033,1.225.039,1.849H21.823c.007-.62.021-1.238.042-1.849ZM11.649,28.289V15.347H13.5V28.289Zm-3.7,0V15.347H9.8V28.289ZM8.522,13.5l2.2-4.4,2.2,4.4ZM31.829,45.485H15.5a2.779,2.779,0,0,1,2.616-1.849H29.214a2.778,2.778,0,0,1,2.615,1.849Zm-5.388-3.7H20.893V37.534H26.44Zm16.271-6.1H4.622a2.777,2.777,0,0,1-2.773-2.773V30.138H45.485v2.773A2.777,2.777,0,0,1,42.711,35.685Zm0,0" fill="#fff"/>
  <path id="Trazado_50" data-name="Trazado 50" d="M212.471,346h-5.547a.924.924,0,1,0,0,1.849h5.547a.924.924,0,1,0,0-1.849Zm0,0" transform="translate(-186.955 -314.013)" fill="#fff"/>
</svg>
