<svg xmlns="http://www.w3.org/2000/svg" width="38.2" height="47.75" viewBox="0 0 38.2 47.75">
  <g id="surface1" transform="translate(-0.25)">
    <path id="Trazado_17" data-name="Trazado 17" d="M588.823,363.484l-1.073,1.173,4.881,4.474a5.584,5.584,0,0,1,1.8,4.107v19.482h1.592V373.239a7.181,7.181,0,0,0-2.322-5.281Zm0,0" transform="translate(-557.577 -344.971)" fill="#fff"/>
    <path id="Trazado_18" data-name="Trazado 18" d="M24.921,0H4.229A3.984,3.984,0,0,0,.25,3.979V43.771A3.984,3.984,0,0,0,4.229,47.75h19.9V46.326a18.093,18.093,0,0,1,3.05-10.072.8.8,0,0,0-.1-1L21.5,29.679a2.581,2.581,0,0,1,.189-3.82,2.681,2.681,0,0,1,3.563.274l7.856,7.856,1.125-1.125L28.9,27.525V3.979A3.984,3.984,0,0,0,24.921,0Zm2.388,25.933-.926-.926a4.283,4.283,0,0,0-5.7-.377,4.173,4.173,0,0,0-.3,6.174L25.5,35.922a19.677,19.677,0,0,0-2.957,10.237H4.229a2.388,2.388,0,0,1-2.387-2.388V41.383h19.9V39.792H1.842V6.367H27.308Zm0-21.158H1.842v-.8A2.388,2.388,0,0,1,4.229,1.592H24.921a2.388,2.388,0,0,1,2.388,2.388Zm0,0" fill="#fff"/>
    <path id="Trazado_19" data-name="Trazado 19" d="M64.342,162.617h3.183a1.591,1.591,0,0,0,1.592-1.592v-3.183a1.591,1.591,0,0,0-1.592-1.592H64.342a1.591,1.591,0,0,0-1.592,1.592v3.183A1.591,1.591,0,0,0,64.342,162.617Zm0-4.775h3.183v3.183H64.342Zm0,0" transform="translate(-59.317 -148.292)" fill="#fff"/>
    <path id="Trazado_20" data-name="Trazado 20" d="M220.592,162.617h3.183a1.591,1.591,0,0,0,1.592-1.592v-3.183a1.591,1.591,0,0,0-1.592-1.592h-3.183A1.591,1.591,0,0,0,219,157.842v3.183A1.591,1.591,0,0,0,220.592,162.617Zm0-4.775h3.183v3.183h-3.183Zm0,0" transform="translate(-207.608 -148.292)" fill="#fff"/>
    <path id="Trazado_21" data-name="Trazado 21" d="M376.842,162.617h3.183a1.591,1.591,0,0,0,1.592-1.592v-3.183a1.591,1.591,0,0,0-1.592-1.592h-3.183a1.591,1.591,0,0,0-1.592,1.592v3.183A1.591,1.591,0,0,0,376.842,162.617Zm0-4.775h3.183v3.183h-3.183Zm0,0" transform="translate(-355.9 -148.292)" fill="#fff"/>
    <path id="Trazado_22" data-name="Trazado 22" d="M64.342,318.867h3.183a1.591,1.591,0,0,0,1.592-1.592v-3.183a1.591,1.591,0,0,0-1.592-1.592H64.342a1.591,1.591,0,0,0-1.592,1.592v3.183A1.591,1.591,0,0,0,64.342,318.867Zm0-4.775h3.183v3.183H64.342Zm0,0" transform="translate(-59.317 -296.583)" fill="#fff"/>
    <path id="Trazado_23" data-name="Trazado 23" d="M64.342,475.117h3.183a1.591,1.591,0,0,0,1.592-1.592v-3.183a1.591,1.591,0,0,0-1.592-1.592H64.342a1.591,1.591,0,0,0-1.592,1.592v3.183A1.591,1.591,0,0,0,64.342,475.117Zm0-4.775h3.183v3.183H64.342Zm0,0" transform="translate(-59.317 -444.875)" fill="#fff"/>
    <path id="Trazado_24" data-name="Trazado 24" d="M220.592,318.867h3.183a1.591,1.591,0,0,0,1.592-1.592v-3.183a1.591,1.591,0,0,0-1.592-1.592h-3.183A1.591,1.591,0,0,0,219,314.092v3.183A1.591,1.591,0,0,0,220.592,318.867Zm0-4.775h3.183v3.183h-3.183Zm0,0" transform="translate(-207.608 -296.583)" fill="#fff"/>
    <path id="Trazado_25" data-name="Trazado 25" d="M376.842,318.867h3.183a1.591,1.591,0,0,0,1.592-1.592v-3.183a1.591,1.591,0,0,0-1.592-1.592h-3.183a1.591,1.591,0,0,0-1.592,1.592v3.183A1.591,1.591,0,0,0,376.842,318.867Zm0-4.775h3.183v3.183h-3.183Zm0,0" transform="translate(-355.9 -296.583)" fill="#fff"/>
    <path id="Trazado_26" data-name="Trazado 26" d="M220.592,475.117h3.183a1.591,1.591,0,0,0,1.592-1.592v-3.183a1.591,1.591,0,0,0-1.592-1.592h-3.183A1.591,1.591,0,0,0,219,470.342v3.183A1.591,1.591,0,0,0,220.592,475.117Zm0-4.775h3.183v3.183h-3.183Zm0,0" transform="translate(-207.608 -444.875)" fill="#fff"/>
    <path id="Trazado_27" data-name="Trazado 27" d="M64.342,631.367h3.183a1.591,1.591,0,0,0,1.592-1.592v-3.183A1.591,1.591,0,0,0,67.525,625H64.342a1.591,1.591,0,0,0-1.592,1.592v3.183A1.591,1.591,0,0,0,64.342,631.367Zm0-4.775h3.183v3.183H64.342Zm0,0" transform="translate(-59.317 -593.167)" fill="#fff"/>
    <path id="Trazado_28" data-name="Trazado 28" d="M220.592,631.367h3.183a1.591,1.591,0,0,0,1.592-1.592v-3.183A1.591,1.591,0,0,0,223.775,625h-3.183A1.591,1.591,0,0,0,219,626.592v3.183A1.591,1.591,0,0,0,220.592,631.367Zm0-4.775h3.183v3.183h-3.183Zm0,0" transform="translate(-207.608 -593.167)" fill="#fff"/>
    <path id="Trazado_29" data-name="Trazado 29" d="M265.875,843.75h1.592v1.592h-1.592Zm0,0" transform="translate(-252.096 -800.775)" fill="#fff"/>
  </g>
</svg>
