<svg xmlns="http://www.w3.org/2000/svg" width="47.5" height="47.5" viewBox="0 0 47.5 47.5">
  <g id="ui" transform="translate(-0.5)">
    <path id="Trazado_30" data-name="Trazado 30" d="M142.648,368h-1.583v3.167h-14.25v1.583h14.25v2.375a2.375,2.375,0,0,1-2.375,2.375H121.273a2.384,2.384,0,0,1-2.058-1.187l-1.371.792a3.975,3.975,0,0,0,3.43,1.979H138.69a3.963,3.963,0,0,0,3.958-3.958Zm0,0" transform="translate(-105.732 -331.583)" fill="#fff"/>
    <path id="Trazado_31" data-name="Trazado 31" d="M232.5,432h1.583v1.583H232.5Zm0,0" transform="translate(-209.042 -389.25)" fill="#fff"/>
    <path id="Trazado_32" data-name="Trazado 32" d="M49.833,21.375V19.792H47.418a10.293,10.293,0,0,0-9.46-9.46V7.917H36.375v2.415a10.289,10.289,0,0,0-1.583.247V6.333H47.458V4.75H34.791V3.958a2.375,2.375,0,0,1,2.375-2.375H54.583a2.374,2.374,0,0,1,1.571.594L57.2.99A3.953,3.953,0,0,0,54.583,0H37.166a3.963,3.963,0,0,0-3.958,3.958v7.125a10.305,10.305,0,0,0-6.293,8.708H24.5v1.583h2.417a10.246,10.246,0,0,0,9.458,9.464V33.25h1.583V30.839a10.246,10.246,0,0,0,9.458-9.464ZM36.375,27.708v1.547a8.675,8.675,0,0,1-3.167-.914V26.917a3.958,3.958,0,1,1,7.917,0v1.425a8.684,8.684,0,0,1-3.167.916V27.708ZM34.791,19a2.375,2.375,0,1,1,2.375,2.375A2.375,2.375,0,0,1,34.791,19Zm8.18,8.075c-.085.079-.177.142-.264.215v-.374A5.542,5.542,0,0,0,39.717,22a3.958,3.958,0,1,0-5.1,0,5.542,5.542,0,0,0-2.992,4.915v.378c-.088-.072-.179-.14-.264-.215a8.713,8.713,0,0,1-2.861-5.7h1.541V19.792H28.5a8.717,8.717,0,0,1,7.876-7.876v1.543h1.583V11.915a8.717,8.717,0,0,1,7.876,7.876H44.291v1.583h1.541a8.713,8.713,0,0,1-2.861,5.7Zm0,0" transform="translate(-21.625 0)" fill="#fff"/>
    <path id="Trazado_33" data-name="Trazado 33" d="M290.708,43.083a.792.792,0,0,0,.792-.792v-9.5a.792.792,0,0,0-.792-.792H273.292a.792.792,0,0,0-.792.792v9.5a.792.792,0,0,0,.792.792Zm-16.625-9.5h15.833V41.5H274.083Zm0,0" transform="translate(-245.083 -28.833)" fill="#fff"/>
    <path id="Trazado_34" data-name="Trazado 34" d="M304.5,64h3.167v1.583H304.5Zm0,0" transform="translate(-273.917 -57.667)" fill="#fff"/>
    <path id="Trazado_35" data-name="Trazado 35" d="M352.5,64h7.917v1.583H352.5Zm0,0" transform="translate(-317.167 -57.667)" fill="#fff"/>
    <path id="Trazado_36" data-name="Trazado 36" d="M304.5,96h12.667v1.583H304.5Zm0,0" transform="translate(-273.917 -86.5)" fill="#fff"/>
    <path id="Trazado_37" data-name="Trazado 37" d="M261.729,160a2.51,2.51,0,0,0-1.663.633l-6.906,6.088V160h-1.583v7.917h.229l-4.5,3.974a5.542,5.542,0,0,0-5.225,5.526v1.4a2.058,2.058,0,0,1-1.145,1.853.792.792,0,0,0,.354,1.5h5.542a5.542,5.542,0,0,0,5.526-5.225l11.262-12.763A2.515,2.515,0,0,0,261.729,160Zm-14.9,20.583h-3.62a3.652,3.652,0,0,0,.454-1.77v-1.4a3.964,3.964,0,0,1,3.642-3.946l3.471,3.471A3.963,3.963,0,0,1,246.827,180.583Zm15.6-17.452-10.886,12.338-2.767-2.766,12.338-10.887a.932.932,0,0,1,1.315,1.315Zm0,0" transform="translate(-216.244 -144.166)" fill="#fff"/>
    <path id="Trazado_38" data-name="Trazado 38" d="M1.292,331.875H18.708a.792.792,0,0,0,.792-.792V324.75a.792.792,0,0,0-.792-.792H13.167V320H11.583v3.958H1.292a.792.792,0,0,0-.792.792v6.333A.792.792,0,0,0,1.292,331.875Zm.792-6.333H17.917v4.75H2.083Zm0,0" transform="translate(0 -288.333)" fill="#fff"/>
    <path id="Trazado_39" data-name="Trazado 39" d="M32.5,392h3.958v1.583H32.5Zm0,0" transform="translate(-28.833 -353.208)" fill="#fff"/>
    <path id="Trazado_40" data-name="Trazado 40" d="M88.5,392h7.125v1.583H88.5Zm0,0" transform="translate(-79.292 -353.208)" fill="#fff"/>
    <path id="Trazado_41" data-name="Trazado 41" d="M1.292,39.917H9.208A.792.792,0,0,0,10,39.125V32.792A.792.792,0,0,0,9.208,32H1.292a.792.792,0,0,0-.792.792v6.333A.792.792,0,0,0,1.292,39.917Zm.792-6.333H8.417v4.75H2.083Zm0,0" transform="translate(0 -28.833)" fill="#fff"/>
    <path id="Trazado_42" data-name="Trazado 42" d="M32.5,64h3.167v1.583H32.5Zm0,0" transform="translate(-28.833 -57.667)" fill="#fff"/>
  </g>
</svg>
