<svg xmlns="http://www.w3.org/2000/svg" width="40" height="40" viewBox="0 0 40 40">
  <g id="Grupo_257" data-name="Grupo 257" transform="translate(-401 -333)">
    <circle id="Elipse_1" data-name="Elipse 1" cx="20" cy="20" r="20" transform="translate(401 333)" fill="#fff"/>
    <g id="Grupo_260" data-name="Grupo 260">
      <path id="Trazado_245" data-name="Trazado 245" d="M14.768,0h-8.5A6.273,6.273,0,0,0,0,6.266v8.5a6.273,6.273,0,0,0,6.266,6.266h8.5a6.273,6.273,0,0,0,6.266-6.266v-8.5A6.273,6.273,0,0,0,14.768,0Zm4.15,14.768a4.15,4.15,0,0,1-4.15,4.15h-8.5a4.15,4.15,0,0,1-4.15-4.15v-8.5a4.15,4.15,0,0,1,4.15-4.15h8.5a4.15,4.15,0,0,1,4.15,4.15v8.5Z" transform="translate(410 342)" fill="#131313"/>
      <path id="Trazado_246" data-name="Trazado 246" d="M138.44,133a5.44,5.44,0,1,0,5.44,5.44A5.446,5.446,0,0,0,138.44,133Zm0,8.764a3.324,3.324,0,1,1,3.324-3.324A3.324,3.324,0,0,1,138.44,141.764Z" transform="translate(282.077 214.077)" fill="#131313"/>
      <circle id="Elipse_6" data-name="Elipse 6" cx="1.304" cy="1.304" r="1.304" transform="translate(424.664 345.814)" fill="#131313"/>
    </g>
  </g>
</svg>
