<svg xmlns="http://www.w3.org/2000/svg" width="40" height="40" viewBox="0 0 40 40">
  <g id="Grupo_266" data-name="Grupo 266" transform="translate(-461 -333)">
    <circle id="Elipse_2" data-name="Elipse 2" cx="20" cy="20" r="20" transform="translate(461 333)" fill="#fff"/>
    <path id="_027-linkedin" data-name="027-linkedin" d="M6.451,19.692a.625.625,0,0,1-.625.625H3.163a.625.625,0,0,1-.625-.625V8.531a.625.625,0,0,1,.625-.625H5.825a.625.625,0,0,1,.625.625ZM4.494,6.854A2.529,2.529,0,1,1,7.023,4.324,2.529,2.529,0,0,1,4.494,6.854Zm15.87,12.888a.575.575,0,0,1-.575.575H16.932a.575.575,0,0,1-.575-.575V14.507c0-.781.229-3.422-2.041-3.422-1.761,0-2.118,1.808-2.19,2.619v6.038a.575.575,0,0,1-.575.575H8.789a.575.575,0,0,1-.575-.575V8.481a.575.575,0,0,1,.575-.575h2.763a.575.575,0,0,1,.575.575v.974a3.922,3.922,0,0,1,3.689-1.736c4.575,0,4.548,4.274,4.548,6.622v5.4Z" transform="translate(470.035 342.205)" fill="#131313"/>
  </g>
</svg>
