<svg xmlns="http://www.w3.org/2000/svg" width="40" height="40" viewBox="0 0 40 40">
  <g id="Grupo_268" data-name="Grupo 268" transform="translate(-581 -333)">
    <circle id="Elipse_3" data-name="Elipse 3" cx="20" cy="20" r="20" transform="translate(581 333)" fill="#fff"/>
    <path id="_008-twitter" data-name="008-twitter" d="M21.143,36.57a8.507,8.507,0,0,1-1.481.5,4.619,4.619,0,0,0,1.219-1.942h0a.242.242,0,0,0-.354-.282h0a8.548,8.548,0,0,1-2.265.936.577.577,0,0,1-.142.018.6.6,0,0,1-.4-.151,4.632,4.632,0,0,0-3.065-1.157,4.952,4.952,0,0,0-1.467.227,4.487,4.487,0,0,0-3.024,3.233,4.941,4.941,0,0,0-.11,1.706.166.166,0,0,1-.042.13.172.172,0,0,1-.128.058H9.872a12.145,12.145,0,0,1-8.348-4.46h0a.242.242,0,0,0-.4.031h0a4.637,4.637,0,0,0,.754,5.63,4.151,4.151,0,0,1-1.056-.409h0a.242.242,0,0,0-.36.209h0A4.638,4.638,0,0,0,3.17,45.117h-.1a4.168,4.168,0,0,1-.78-.074h0a.242.242,0,0,0-.276.312h0a4.642,4.642,0,0,0,3.667,3.157A8.547,8.547,0,0,1,.894,49.967H.358a.355.355,0,0,0-.347.267.367.367,0,0,0,.176.405,12.713,12.713,0,0,0,6.388,1.722A12.887,12.887,0,0,0,12.034,51.2a12.055,12.055,0,0,0,3.994-2.993,13.122,13.122,0,0,0,2.446-4.1,12.94,12.94,0,0,0,.831-4.483v-.071a.788.788,0,0,1,.295-.613,9.155,9.155,0,0,0,1.842-2.021h0a.242.242,0,0,0-.3-.356Z" transform="translate(591.335 310.16)" fill="#131313"/>
  </g>
</svg>
