<svg xmlns="http://www.w3.org/2000/svg" width="44.035" height="43.984" viewBox="0 0 44.035 43.984">
  <g id="telefono" transform="translate(1.476 1.5)">
    <g id="Grupo_198" data-name="Grupo 198" transform="translate(0)">
      <g id="Grupo_197" data-name="Grupo 197">
        <path id="Trazado_248" data-name="Trazado 248" d="M40.138,32.8,33.8,26.454a3.306,3.306,0,0,0-4.662.088l-3.195,3.194c-.2-.111-.411-.227-.63-.351a31.791,31.791,0,0,1-7.684-5.557,31.968,31.968,0,0,1-5.569-7.7c-.118-.214-.232-.42-.344-.616l2.144-2.141,1.054-1.055A3.3,3.3,0,0,0,15,7.656L8.657,1.314A3.3,3.3,0,0,0,4,1.4L2.754,2.58,2.208,3.2l-.418.7L.784,5.845A10.769,10.769,0,0,0,.129,8.479c-.837,6.941,2.335,13.285,10.943,21.893,11.9,11.9,21.488,11,21.9,10.956a10.714,10.714,0,0,0,2.642-.664A10.3,10.3,0,0,0,38.2,39.2l1.849-1.738A3.309,3.309,0,0,0,40.138,32.8Z" transform="translate(0 -0.394)" fill="none" stroke="#cecece" stroke-width="3"/>
      </g>
    </g>
  </g>
</svg>
